<?xml version="1.0" encoding="UTF-8" standalone="no"?>
<!-- Created with Inkscape (http://www.inkscape.org/) -->

<svg
   xmlns:dc="http://purl.org/dc/elements/1.1/"
   xmlns:cc="http://creativecommons.org/ns#"
   xmlns:rdf="http://www.w3.org/1999/02/22-rdf-syntax-ns#"
   xmlns:svg="http://www.w3.org/2000/svg"
   xmlns="http://www.w3.org/2000/svg"
   xmlns:sodipodi="http://sodipodi.sourceforge.net/DTD/sodipodi-0.dtd"
   xmlns:inkscape="http://www.inkscape.org/namespaces/inkscape"
   width="101.57778"
   height="100.8053"
   id="svg13095"
   version="1.1"
   inkscape:version="0.48.3.1 r9886"
   sodipodi:docname="velociraptor.svg">
  <defs
     id="defs13097" />
  <sodipodi:namedview
     id="base"
     pagecolor="#ffffff"
     bordercolor="#666666"
     borderopacity="1.0"
     inkscape:pageopacity="0.0"
     inkscape:pageshadow="2"
     inkscape:zoom="0.35"
     inkscape:cx="252.9723"
     inkscape:cy="-338.83014"
     inkscape:document-units="px"
     inkscape:current-layer="layer1"
     showgrid="false"
     inkscape:window-width="1366"
     inkscape:window-height="744"
     inkscape:window-x="0"
     inkscape:window-y="24"
     inkscape:window-maximized="1"
     fit-margin-top="0"
     fit-margin-left="0"
     fit-margin-right="0"
     fit-margin-bottom="0" />
  <metadata
     id="metadata13100">
    <rdf:RDF>
      <cc:Work
         rdf:about="">
        <dc:format>image/svg+xml</dc:format>
        <dc:type
           rdf:resource="http://purl.org/dc/dcmitype/StillImage" />
        <dc:title></dc:title>
      </cc:Work>
    </rdf:RDF>
  </metadata>
  <g
     inkscape:label="Layer 1"
     inkscape:groupmode="layer"
     id="layer1"
     transform="translate(-101.3693,-97.673547)">
    <flowRoot
       xml:space="preserve"
       id="flowRoot5209"
       style="font-size:40px;font-style:normal;font-weight:normal;line-height:125%;letter-spacing:0px;word-spacing:0px;fill:#000000;fill-opacity:1;stroke:none;font-family:Sans"
       transform="translate(-435.44948,-151.19697)"><flowRegion
         id="flowRegion5211"><rect
           id="rect5213"
           width="123.23861"
           height="86.873116"
           x="-62.629459"
           y="42.209637" /></flowRegion><flowPara
         id="flowPara5215">rhetorical raptorrhetorical raptorR</flowPara></flowRoot>    <path
       inkscape:connector-curvature="0"
       id="path9161"
       d="m 169.57536,196.92666 c -0.18864,-0.85889 0.0134,-1.32737 0.99603,-2.31004 0.67796,-0.67797 1.70654,-1.33038 2.28572,-1.44982 1.38543,-0.2857 5.25375,-1.76925 5.87959,-2.25489 0.27087,-0.2102 0.4925,-0.61406 0.4925,-0.89746 0,-0.77202 -6.66588,-6.08627 -7.63426,-6.08627 -0.46161,0 -2.07983,0.36441 -3.59605,0.80981 -3.46179,1.01693 -10.44886,1.4599 -16.38985,1.0391 -7.14083,-0.50577 -6.64726,-0.58559 -8.34387,1.34941 -0.8327,0.94969 -1.96418,2.59792 -2.51442,3.66274 -1.16396,2.25251 -4.59516,6.5163 -5.80254,7.21055 -1.02877,0.59154 -4.54454,0.64844 -5.99488,0.097 -0.71722,-0.27269 -1.44669,-0.28055 -2.18395,-0.0235 -2.49855,0.871 -1.45972,-1.34104 1.2885,-2.74369 0.78536,-0.40084 1.9099,-1.30157 2.49897,-2.00164 1.01629,-1.20779 1.06337,-1.44525 0.92116,-4.6468 -0.12622,-2.84119 -0.38301,-3.9062 -1.6262,-6.74457 -2.64427,-6.03726 -7.35727,-11.09923 -12.67792,-13.61669 -1.58891,-0.75179 -2.62005,-0.93285 -5.33015,-0.93595 -3.00164,-0.004 -3.65319,-0.14511 -6.10703,-1.32784 -5.2109,-2.5116 -5.822689,-4.88413 -1.4913,-5.78333 1.85914,-0.38596 2.61802,-0.82052 4.43375,-2.53895 1.20488,-1.14031 2.75811,-2.36185 3.45163,-2.71455 1.96842,-1.00104 7.78715,-0.84521 13.81611,0.37 5.7138,1.15169 10.33906,1.35711 13.4881,0.59905 1.19186,-0.28691 4.64922,-1.54463 7.68304,-2.79493 9.8002,-4.03888 14.31081,-4.93728 19.1091,-3.80605 1.40855,0.33208 2.71061,0.4572 2.89346,0.27806 1.03745,-1.01642 -1.16453,-3.13819 -6.63648,-6.39472 -5.64386,-3.35883 -9.80907,-9.12307 -10.76437,-14.8968 -0.60953,-3.6839 0.72362,-12.08106 1.29232,-13.59623 0.56871,-1.51517 1.44358,-3.3754 1.94417,-4.13385 2.92227,-4.4276 8.17696,-9.17716 12.2559,-11.077777 6.69097,-3.117715 17.75414,-2.310706 25.84741,1.885457 3.53527,1.83293 6.77389,4.79939 8.00349,7.33089 1.35634,2.79239 2.37878,9.48021 1.63208,10.67541 -0.28831,0.46149 -1.01872,1.99152 -1.62313,3.40008 -1.00656,2.34575 -2.33924,4.33617 -2.90087,4.33256 -0.12475,-7.8e-4 -0.81827,-1.1453 -1.54117,-2.54335 -1.64201,-3.17561 -6.31558,-7.69924 -7.95442,-7.69924 -0.58481,0 -2.2156,0.52248 -3.62398,1.16107 -3.18041,1.44206 -4.02691,2.85688 -3.77694,6.3127 0.24247,3.35209 2.15494,6.89458 9.85108,18.24727 3.33072,4.91319 4.51432,10.21904 3.71065,16.63418 -0.40898,3.26451 -0.77579,4.50163 -2.13955,7.21579 -0.90527,1.80167 -2.11687,3.89317 -2.69245,4.64779 -1.36861,1.79435 -3.63175,10.20222 -4.01993,14.93459 -0.34632,4.22212 -1.41428,6.77753 -3.74791,8.96807 l -1.58528,1.48807 c 0,0 -10.86952,1.30873 -11.07586,0.36929 z m -0.94988,-19.48161 c 5.45687,-0.84327 10.31586,-2.9685 15.30458,-6.69396 2.27991,-1.7026 7.28666,-9.96279 7.53725,-11.16989 1.1907,-5.73553 -0.81743,-10.34767 -8.14572,-18.70866 -1.18185,-1.34838 -3.25099,-4.31325 -4.5981,-6.58861 0,0 -1.82455,-3.03948 -2.2503,-4.73403 -0.4037,-1.60677 -0.24133,-4.96426 -0.24133,-4.96426 -0.0233,-3.05869 1.71253,-7.81755 2.72585,-8.99127 2.41258,-2.79448 5.17924,-3.92995 8.93954,-3.6689 2.4539,0.17036 6.26306,1.6358 6.8904,2.65086 0.46463,0.75179 1.77764,0.45185 1.77764,-0.40608 0,-2.10616 -2.1313,-4.37932 -5.87024,-6.26097 -8.57094,-4.31338 -18.12017,-1.61119 -22.08877,6.25058 -0.84198,1.66794 -1.97515,7.85445 -1.57778,9.97762 0.98137,5.24354 7.31405,15.06616 15.21648,23.60228 2.34745,2.53569 2.89098,3.38143 3.25052,5.05793 0.62386,2.90898 0.53762,3.9625 -0.45679,5.5804 -2.24935,3.65967 -6.07637,5.95325 -12.4243,7.44602 -5.49308,1.29175 -14.08455,0.80251 -19.93165,-1.135 -2.82908,-0.93745 -3.2146,-1.17986 -3.32035,-2.08773 -0.26031,-2.23471 5.85417,-6.1292 12.29434,-7.83061 1.71197,-0.45228 3.469,-1.01303 3.90452,-1.24612 2.61304,-1.39845 -5.13898,-1.38944 -10.00107,0.0116 -1.42444,0.41047 -4.1726,1.37842 -6.10703,2.15101 -4.09157,1.63411 -9.97247,3.21464 -13.41213,3.6046 -1.91708,0.21734 -3.27106,0.0654 -6.63108,-0.74437 -6.68126,-1.6101 -8.8678,-1.28924 -6.69184,0.98197 1.12578,1.17506 6.08649,4.30458 6.82335,4.30458 0.22537,0 0.58888,0.3347 0.80781,0.74378 0.50815,0.94949 5.68555,4.28655 11.25272,7.25289 3.59964,1.91797 5.40223,2.5812 10.63806,3.91407 3.46722,0.88264 7.72244,1.72778 9.45605,1.87807 1.73361,0.15029 3.16746,0.30072 3.18635,0.33427 0.0189,0.0336 1.70323,-0.1969 3.74302,-0.5121 z M 112.96305,161.3759 c 0.0817,-0.43098 -0.25131,-0.85888 -0.89769,-1.15338 -0.8518,-0.38811 -1.1373,-0.35853 -1.66872,0.17289 -0.53858,0.53858 -0.55739,0.74197 -0.11767,1.2718 0.67722,0.816 2.51186,0.61688 2.68408,-0.29131 z m 7.55985,-0.11521 c 0,-0.95213 -0.94275,-1.73722 -1.46225,-1.21771 -0.30143,0.30141 0.67899,2.21509 1.13483,2.21509 0.18008,0 0.32742,-0.44882 0.32742,-0.99738 z"
       style="fill:#000000;fill-opacity:1"
       sodipodi:nodetypes="sssssssssssscssssscsssssssssssssssssscsssssssssscssssssasssssssssssssssssssssssssscssssssssss" />
  </g>
</svg>
